<?xml version="1.0" standalone="no"?><!DOCTYPE svg PUBLIC "-//W3C//DTD SVG 1.1//EN" "http://www.w3.org/Graphics/SVG/1.1/DTD/svg11.dtd"><svg t="1505358051749" class="icon" style="" viewBox="0 0 1024 1024" version="1.1" xmlns="http://www.w3.org/2000/svg" p-id="7187" xmlns:xlink="http://www.w3.org/1999/xlink" width="16" height="16"><defs><style type="text/css"></style></defs><path d="M928.275 451.353L589.685 99.257c-21.005-21.81-49.165-33.93-79.28-33.93-30.123 0-58.282 12.001-79.284 33.93L92.642 451.353c-34.965 36.354-30.464 67.742-24.697 80.9 4.157 9.348 18.002 34.85 58.048 34.85h49.625v270.853c0 61.505 44.197 119.437 106.975 119.437h144.14V670.734c0-30.695-4.617-47.893 26.776-47.893h113.9c31.39 0 26.773 17.078 26.773 47.893v286.659h144.025c62.778 0 106.98-57.932 106.98-119.437V567.102h49.62c40.046 0 53.896-25.62 58.048-34.85 5.77-13.158 10.272-44.546-24.58-80.9z m-33.464 60.01H789.333v326.592c0 30.694-19.848 63.586-51.237 63.586h-88.287V670.732c0-61.51-19.733-103.631-82.514-103.631h-113.9c-62.782 0-82.518 42.12-82.518 103.631v230.924h-88.285c-31.39 0-51.238-32.894-51.238-63.589V511.48H125.878c-1.038 0-1.846-3.81-2.653-3.925 1.959-3.348 5.309-11.886 10.846-17.658l338.59-351.862c10.042-10.617 24.352-16.965 38.203-16.85 13.846-0.114 27.233 6.349 37.387 16.85l338.48 351.746c5.537 5.768 8.888 14.309 10.733 17.66-0.696 0.113-1.618 3.918-2.656 3.918l0.003 0.006z m0 0" p-id="7188" fill="#707070"></path></svg>