<?xml version="1.0" standalone="no"?><!DOCTYPE svg PUBLIC "-//W3C//DTD SVG 1.1//EN" "http://www.w3.org/Graphics/SVG/1.1/DTD/svg11.dtd"><svg t="1505358767203" class="icon" style="" viewBox="0 0 1024 1024" version="1.1" xmlns="http://www.w3.org/2000/svg" p-id="13967" xmlns:xlink="http://www.w3.org/1999/xlink" width="16" height="16"><defs><style type="text/css"></style></defs><path d="M815.823192 934.350191c0-11.356652-9.205663-20.562315-20.561291-20.562315L529.77841 913.787876c-11.355629 0-20.561291 9.205663-20.561291 20.562315l0 0c0 11.355629 9.205663 20.561291 20.561291 20.561291l265.484513 0C806.617529 954.910459 815.823192 945.704796 815.823192 934.350191L815.823192 934.350191z" p-id="13968" fill="#ed4040"></path><path d="M509.133208 63.323211c-246.189052 0-445.775716 199.603037-445.775716 445.791066 0 246.188029 199.586664 445.789019 445.775716 445.789019 246.204401 0 445.806415-199.600991 445.806415-445.789019C954.939623 262.925225 755.337609 63.323211 509.133208 63.323211zM509.149581 410.112472c-48.743144 0-88.256066-39.512922-88.256066-88.256066 0-48.742121 39.512922-88.256066 88.256066-88.256066 48.742121 0 88.256066 39.512922 88.256066 88.256066C597.405647 370.59955 557.891701 410.112472 509.149581 410.112472zM509.149581 789.228999c-48.743144 0-88.256066-39.512922-88.256066-88.256066s39.512922-88.256066 88.256066-88.256066c48.742121 0 88.256066 39.512922 88.256066 88.256066S557.891701 789.228999 509.149581 789.228999zM609.298512 511.414669c0-48.743144 39.512922-88.256066 88.256066-88.256066 48.742121 0 88.255043 39.512922 88.255043 88.256066 0 48.742121-39.512922 88.25709-88.255043 88.25709C648.811434 599.671759 609.298512 560.157813 609.298512 511.414669zM230.181985 511.414669c0-48.743144 39.512922-88.256066 88.256066-88.256066 48.743144 0 88.25709 39.512922 88.25709 88.256066 0 48.741098-39.512922 88.25709-88.25709 88.25709C269.694907 599.671759 230.181985 560.15679 230.181985 511.414669z" p-id="13969" fill="#ed4040"></path></svg>