<?xml version="1.0" standalone="no"?><!DOCTYPE svg PUBLIC "-//W3C//DTD SVG 1.1//EN" "http://www.w3.org/Graphics/SVG/1.1/DTD/svg11.dtd"><svg t="1505358798030" class="icon" style="" viewBox="0 0 1024 1024" version="1.1" xmlns="http://www.w3.org/2000/svg" p-id="14140" xmlns:xlink="http://www.w3.org/1999/xlink" width="16" height="16"><defs><style type="text/css"></style></defs><path d="M878.933333 508.586667C878.933333 433.493333 815.786667 370.346667 740.693333 370.346667 665.6 370.346667 602.453333 433.493333 602.453333 508.586667 602.453333 583.68 665.6 646.826667 740.693333 646.826667 814.08 648.533333 878.933333 585.386667 878.933333 508.586667L878.933333 508.586667ZM738.986667 600.746667C687.786667 600.746667 648.533333 561.493333 648.533333 510.293333 648.533333 459.093333 687.786667 419.84 738.986667 419.84 790.186667 419.84 829.44 459.093333 829.44 510.293333 834.56 561.493333 790.186667 600.746667 738.986667 600.746667L738.986667 600.746667ZM508.586667 418.133333C583.68 418.133333 646.826667 354.986667 646.826667 279.893333 646.826667 204.8 583.68 141.653333 508.586667 141.653333 433.493333 141.653333 370.346667 204.8 370.346667 279.893333 370.346667 354.986667 433.493333 418.133333 508.586667 418.133333L508.586667 418.133333ZM508.586667 184.32C559.786667 184.32 599.04 223.573333 599.04 274.773333 599.04 325.973333 559.786667 365.226667 508.586667 365.226667 457.386667 365.226667 418.133333 325.973333 418.133333 274.773333 418.133333 223.573333 457.386667 184.32 508.586667 184.32L508.586667 184.32ZM418.133333 508.586667C418.133333 433.493333 354.986667 370.346667 279.893333 370.346667 204.8 370.346667 141.653333 433.493333 141.653333 508.586667 141.653333 583.68 204.8 646.826667 279.893333 646.826667 354.986667 646.826667 418.133333 585.386667 418.133333 508.586667L418.133333 508.586667ZM279.893333 600.746667C228.693333 600.746667 189.44 561.493333 189.44 510.293333 189.44 459.093333 228.693333 419.84 279.893333 419.84 331.093333 419.84 370.346667 459.093333 370.346667 510.293333 370.346667 561.493333 331.093333 600.746667 279.893333 600.746667L279.893333 600.746667ZM508.586667 600.746667C433.493333 600.746667 370.346667 663.893333 370.346667 738.986667 370.346667 814.08 433.493333 877.226667 508.586667 877.226667 583.68 877.226667 646.826667 814.08 646.826667 738.986667 648.533333 663.893333 585.386667 600.746667 508.586667 600.746667L508.586667 600.746667ZM508.586667 834.56C457.386667 834.56 418.133333 795.306667 418.133333 744.106667 418.133333 692.906667 457.386667 653.653333 508.586667 653.653333 559.786667 653.653333 599.04 692.906667 599.04 744.106667 599.04 795.306667 561.493333 834.56 508.586667 834.56L508.586667 834.56ZM984.746667 972.8 723.626667 972.8C897.706667 894.293333 1020.586667 715.093333 1020.586667 508.586667 1020.586667 226.986667 793.6 0 512 0 230.4 0 0 226.986667 0 508.586667 0 790.186667 226.986667 1017.173333 508.586667 1017.173333L520.533333 1017.173333 520.533333 1017.173333 984.746667 1017.173333C993.28 1017.173333 996.693333 1013.76 996.693333 1005.226667L996.693333 984.746667C996.693333 977.92 989.866667 972.8 984.746667 972.8L984.746667 972.8ZM508.586667 972.8C254.293333 972.8 44.373333 766.293333 44.373333 508.586667 44.373333 254.293333 250.88 44.373333 508.586667 44.373333 762.88 44.373333 972.8 250.88 972.8 508.586667 972.8 762.88 762.88 972.8 508.586667 972.8L508.586667 972.8Z" p-id="14141" fill="#707070"></path></svg>