<?xml version="1.0" standalone="no"?><!DOCTYPE svg PUBLIC "-//W3C//DTD SVG 1.1//EN" "http://www.w3.org/Graphics/SVG/1.1/DTD/svg11.dtd"><svg t="1505381207112" class="icon" style="" viewBox="0 0 1024 1024" version="1.1" xmlns="http://www.w3.org/2000/svg" p-id="3969" xmlns:xlink="http://www.w3.org/1999/xlink" width="16" height="16"><defs><style type="text/css"></style></defs><path d="M882.719276 474.326982 543.496341 474.326982 543.496341 94.485955c0-16.826224-13.638625-30.466895-30.466895-30.466895l-4.78498 0c-16.826224 0-30.468942 13.640672-30.468942 30.466895l0 379.841028L138.554636 474.326982c-17.024745 0-30.826076 13.801331-30.826076 30.826076l0 11.762905c0 17.026792 13.801331 30.826076 30.826076 30.826076L477.775524 547.742039l0 380.434545c0 16.826224 13.642718 30.466895 30.468942 30.466895l4.78498 0c16.82827 0 30.466895-13.640672 30.466895-30.466895l0-380.434545 339.222935 0c17.022699 0 30.826076-13.799284 30.826076-30.826076l0-11.762905C913.545352 488.128313 899.741975 474.326982 882.719276 474.326982z" p-id="3970" fill="#333333"></path></svg>