<?xml version="1.0" standalone="no"?><!DOCTYPE svg PUBLIC "-//W3C//DTD SVG 1.1//EN" "http://www.w3.org/Graphics/SVG/1.1/DTD/svg11.dtd"><svg t="1505458970389" class="icon" style="" viewBox="0 0 1024 1024" version="1.1" xmlns="http://www.w3.org/2000/svg" p-id="20614" xmlns:xlink="http://www.w3.org/1999/xlink" width="16" height="16"><defs><style type="text/css"></style></defs><path d="M883.04128 435.4816c10.58304-11.12064 14.47936-24.10496 10.78784-35.61984-3.72224-11.5456-14.49984-19.85536-29.63456-22.7584l-181.02272-34.56c-16.41984-2.98496-38.06208-18.64192-46.32064-33.44896l-107.33056-193.5872a14.05952 14.05952 0 0 0-12.2368-7.19872c-5.10976 0-9.7792 2.74432-12.2368 7.18336l-107.5456 193.536c-8.30976 14.86848-29.98272 30.52544-46.49984 33.55648l-181.26848 34.51392c-14.90432 2.90304-25.61536 11.19744-29.34784 22.68672-3.74784 11.4944 0.07168 24.47872 10.50624 35.68128l125.98272 133.49888c11.4688 12.12928 19.79392 37.60128 17.81248 54.41024l-22.89152 181.11488c-2.0736 15.91808 3.04128 25.57952 7.72608 30.8992 9.44128 10.79808 25.70752 13.02016 41.96352 5.4272l166.95296-77.61408c14.62272-6.84544 42.7264-6.84544 57.4464 0l166.86592 77.61408c6.528 3.06688 12.94336 4.608 19.03104 4.608 9.1392 0 17.27488-3.5584 22.94784-10.01472 4.67968-5.3248 9.81504-14.98624 7.74656-30.83776l-22.90176-181.25312c-2.18112-16.64 6.15936-42.05568 17.85856-54.38464l125.60896-133.44768z m-145.94048 114.2272c-17.42848 18.34496-28.52864 52.28032-25.29792 77.16864l22.912 181.248c0.71168 5.26336-0.31744 7.99744-1.00864 8.80128-1.3824 1.53088-5.43232 0.26624-9.09824-1.46944l-166.90176-77.61408c-11.0848-5.15584-25.49248-8.00256-40.58624-8.00256-15.0784 0-29.4656 2.85184-40.50432 8.00256l-166.97856 77.6192c-5.87264 2.78016-8.17152 2.56-9.06752 1.46944-0.71168-0.77824-1.7152-3.52256-0.98816-8.8576l22.87104-181.30432c2.9696-25.13408-8.11008-58.96192-25.2416-77.02016L171.32544 416.30208c-4.23936-4.53632-4.48-7.3728-4.33152-7.87456 0.18944-0.52224 2.05312-2.66752 8.064-3.84512l181.07904-34.47808c24.55552-4.48 53.43744-25.3184 65.77152-47.43168l95.36512-171.5456 95.13984 171.58656c12.30848 22.07232 41.20064 42.91584 65.63328 47.35488l180.87936 34.51392c6.15424 1.1776 8.11008 3.35872 8.2432 3.84512 0.14848 0.45056-0.14848 3.30752-4.45952 7.85408l-125.60896 133.4272z" p-id="20615" fill="#ee994b"></path></svg>