<?xml version="1.0" standalone="no"?><!DOCTYPE svg PUBLIC "-//W3C//DTD SVG 1.1//EN" "http://www.w3.org/Graphics/SVG/1.1/DTD/svg11.dtd"><svg t="1505458205608" class="icon" style="" viewBox="0 0 1024 1024" version="1.1" xmlns="http://www.w3.org/2000/svg" p-id="12720" xmlns:xlink="http://www.w3.org/1999/xlink" width="64" height="64"><defs><style type="text/css"></style></defs><path d="M486.4 307.2c-15.36 0-25.6 10.24-25.6 25.6v204.8c0 12.8 10.24 25.6 25.6 25.6h204.8c15.36 0 25.6-12.8 25.6-25.6 0-15.36-10.24-25.6-25.6-25.6h-179.2v-179.2c0-12.8-10.24-25.6-25.6-25.6z" fill="#ef7b8e" p-id="12721"></path><path d="M512 102.4c-89.6 0-174.08 28.16-240.64 79.36l12.8-46.08c2.56-12.8-5.12-28.16-17.92-30.72s-28.16 5.12-30.72 17.92l-25.6 99.84c-2.56 12.8 5.12 28.16 17.92 30.72l99.84 25.6c12.8 2.56 28.16-5.12 30.72-17.92s-5.12-28.16-17.92-30.72l-33.28-7.68c58.88-40.96 128-66.56 204.8-66.56 197.12 0 358.4 161.28 358.4 358.4s-161.28 358.4-358.4 358.4-358.4-161.28-358.4-358.4c0-15.36-10.24-25.6-25.6-25.6s-25.6 10.24-25.6 25.6c0 225.28 184.32 409.6 409.6 409.6s409.6-184.32 409.6-409.6-184.32-412.16-409.6-412.16z" fill="#ef7b8e" p-id="12722"></path></svg>