<?xml version="1.0" standalone="no"?><!DOCTYPE svg PUBLIC "-//W3C//DTD SVG 1.1//EN" "http://www.w3.org/Graphics/SVG/1.1/DTD/svg11.dtd"><svg t="1505357828207" class="icon" style="" viewBox="0 0 1024 1024" version="1.1" xmlns="http://www.w3.org/2000/svg" p-id="6953" xmlns:xlink="http://www.w3.org/1999/xlink" width="16" height="16"><defs><style type="text/css"></style></defs><path d="M988.30586 441.371833L601.206289 38.746212A124.817264 124.817264 0 0 0 510.513125 0.000277a124.817264 124.817264 0 0 0-90.665489 38.745935L32.720389 441.371833c-39.908314 41.541178-34.788315 77.491871-28.201506 92.464408 4.704864 10.655132 20.618373 39.908314 66.366252 39.908313h56.73512v309.746079c0 70.296197 50.563446 136.524071 122.381805 136.524071h164.808604V692.22409c0-35.148099-5.341404-54.714796 30.581613-54.714796H575.661648c35.923017 0 30.609289 19.566697 30.609289 54.714796v327.790614h164.780928c71.818359 0 122.381805-66.200198 122.381805-136.524071V573.716878h56.73512c45.775555 0 61.661389-29.253181 66.366252-39.908313 6.614485-15.000212 11.734483-50.923229-28.201506-92.464408" p-id="6954" fill="#ed4040"></path></svg>