<?xml version="1.0" standalone="no"?><!DOCTYPE svg PUBLIC "-//W3C//DTD SVG 1.1//EN" "http://www.w3.org/Graphics/SVG/1.1/DTD/svg11.dtd"><svg t="1505359685131" class="icon" style="" viewBox="0 0 1024 1024" version="1.1" xmlns="http://www.w3.org/2000/svg" p-id="16945" xmlns:xlink="http://www.w3.org/1999/xlink" width="16" height="16"><defs><style type="text/css"></style></defs><path d="M512.0512 52.03968c123.94496 0 224.78848 97.23904 224.78848 216.76032 0 119.56224-100.85376 216.84224-224.78848 216.84224-123.99616 0-224.88064-97.28-224.88064-216.84224 0-119.52128 100.88448-216.76032 224.88064-216.76032m0-46.6432C362.3424 5.39648 240.5376 123.61728 240.5376 268.8c0 145.21344 121.8048 263.45472 271.5136 263.45472 149.68832 0 271.4112-118.20032 271.4112-263.45472C783.4624 123.62752 661.73952 5.39648 512.0512 5.39648zM613.67296 604.20096c163.31776 0 296.192 128.18432 296.192 285.73696v19.712c0 49.17248-164.22912 49.17248-296.192 49.17248h-203.3664c-138.82368 0-296.15104 0-296.15104-49.17248v-19.712c0-157.56288 132.864-285.73696 296.15104-285.73696h203.3664m0-46.61248h-203.3664c-189.0816 0-342.784 149.0432-342.784 332.34944v19.712c0 95.80544 151.25504 95.80544 342.784 95.80544h203.35616c184.02304 0 324.99712 18.54464 342.80448-95.80544v-19.712c0-183.25504-153.78432-332.34944-342.79424-332.34944z" fill="#707070" p-id="16946"></path></svg>