<?xml version="1.0" standalone="no"?><!DOCTYPE svg PUBLIC "-//W3C//DTD SVG 1.1//EN" "http://www.w3.org/Graphics/SVG/1.1/DTD/svg11.dtd"><svg t="1505358148407" class="icon" style="" viewBox="0 0 1024 1024" version="1.1" xmlns="http://www.w3.org/2000/svg" p-id="9790" xmlns:xlink="http://www.w3.org/1999/xlink" width="16" height="16"><defs><style type="text/css"></style></defs><path d="M927.753515 512.005c0 35.200086-20.3513 65.916411-50.625124 82.621452l0 0L252.419366 1009.987466c-0.253751 0.19125-0.576251 0.317501-0.830002 0.443751l-0.386251 0.258751 0 0c-15.356287 8.448771-33.276331 13.310032-52.411378 13.310032-56.900139 0-103.042752-43.007605-103.042752-96.001484l0 0L95.748984 96.001484l0 0C95.748984 43.007605 141.891596 0 198.791735 0c19.135047 0 37.05509 4.863762 52.411378 13.373783l0 0 0.386251 0.195c0.253751 0.19125 0.512501 0.317501 0.830002 0.443751L877.128391 429.376048l0 0C907.400965 446.079839 927.753515 476.802414 927.753515 512.005L927.753515 512.005zM927.753515 512.005" p-id="9791" fill="#ed4040"></path></svg>