<?xml version="1.0" standalone="no"?><!DOCTYPE svg PUBLIC "-//W3C//DTD SVG 1.1//EN" "http://www.w3.org/Graphics/SVG/1.1/DTD/svg11.dtd"><svg t="1505373847130" class="icon" style="" viewBox="0 0 1024 1024" version="1.1" xmlns="http://www.w3.org/2000/svg" p-id="2907" xmlns:xlink="http://www.w3.org/1999/xlink" width="16" height="16"><defs><style type="text/css"></style></defs><path d="M400.085333 151.210667c-89.059556 0-172.672 47.616-218.197333 124.273778-4.010667 6.741333-1.792 15.488 4.963556 19.484444 2.275556 1.365333 4.778667 2.005333 7.253333 2.005333 4.864 0 9.585778-2.474667 12.245333-6.954667 40.433778-68.067556 114.659556-110.364444 193.735111-110.364444 7.864889 0 14.222222-6.357333 14.222222-14.222222C414.307556 157.568 407.950222 151.210667 400.085333 151.210667z" p-id="2908" fill="#bfbfbf"></path><path d="M170.197333 336.298667c-7.637333-1.763556-15.288889 2.958222-17.080889 10.609778-4.252444 18.147556-6.656 29.397333-6.656 49.592889 0 7.864889 6.371556 14.222222 14.222222 14.222222 7.864889 0 14.222222-6.357333 14.222222-14.222222 0-17.137778 1.92-26.083556 5.902222-43.121778C182.599111 345.728 177.848889 338.090667 170.197333 336.298667z" p-id="2909" fill="#bfbfbf"></path><path d="M947.384889 821.944889 717.809778 592.384c-5.589333-5.589333-11.207111-9.557333-16.64-12.472889 30.051556-51.484444 47.36-111.288889 47.36-175.089778 0-192.142222-156.302222-348.444444-348.444444-348.444444-192.128 0-348.444444 156.302222-348.444444 348.444444s156.316444 348.430222 348.444444 348.430222c68.408889 0 132.209778-19.882667 186.083556-54.058667 2.915556 4.821333 6.570667 9.472 10.951111 13.852444l229.575111 229.589333c16.156444 16.113778 37.546667 24.974222 60.359111 24.974222 22.798222 0 44.202667-8.860444 60.344889-24.974222 16.113778-16.113778 24.974222-37.560889 24.974222-60.330667C972.359111 859.505778 963.498667 838.087111 947.384889 821.944889zM108.529778 404.835556c0-160.768 130.787556-291.555556 291.555556-291.555556 160.782222 0 291.555556 130.787556 291.555556 291.555556 0 160.782222-130.801778 291.541333-291.555556 291.541333C239.317333 696.376889 108.529778 565.617778 108.529778 404.835556zM907.150222 902.414222c-10.766222 10.723556-29.496889 10.723556-40.248889 0L637.340444 672.839111c-1.991111-1.976889-2.730667-3.299556-2.830222-3.299556 0.042667-0.611556 0.824889-6.471111 17.080889-22.698667 16.213333-16.256 22.072889-16.995556 22.257778-17.109333 0.369778 0.113778 1.692444 0.853333 3.740444 2.887111l229.546667 229.560889c5.390222 5.390222 8.334222 12.529778 8.334222 20.138667C915.456 889.884444 912.512 897.024 907.150222 902.414222z" p-id="2910" fill="#bfbfbf"></path></svg>